# Blender 4.5.4 LTS
# www.blender.org
mtllib seperated_tongue.mtl
o ICTFaceModel.012
v 1.968665 -4.276687 4.491481
v 1.923621 -4.369639 4.092581
v 1.859285 -4.525389 3.720603
v 1.805387 -5.025045 3.328135
v 1.821102 -4.689413 3.293499
v -1.968665 -4.276687 4.491481
v -1.923621 -4.369639 4.092581
v -1.859285 -4.525389 3.720603
v -1.805387 -5.025046 3.328135
v -1.821102 -4.689413 3.293499
v 1.691940 -4.582700 4.890246
v 1.719987 -4.513543 4.460694
v 1.723429 -4.574543 4.105160
v 1.742466 -4.771254 3.781689
v -1.692179 -4.582536 4.890314
v -1.719987 -4.513543 4.460694
v -1.723429 -4.574543 4.105160
v -1.742466 -4.771254 3.781689
v 0.834409 -4.834734 5.148496
v 0.787803 -4.921583 5.409231
v 0.502940 -4.821049 5.573028
v 1.102861 -4.858097 5.009165
v 1.405153 -4.759049 4.910934
v 0.275807 -4.868527 5.966206
v 0.114613 -4.959161 6.113534
v 0.050439 -4.961381 6.201030
v -0.001201 -4.928144 6.156292
v 0.044712 -4.931740 6.121388
v 0.271298 -4.840923 5.827332
v 0.117699 -4.911307 6.004223
v -0.001196 -4.954573 6.228889
v -0.835736 -4.834312 5.148666
v -0.789268 -4.921144 5.409410
v -0.504491 -4.820732 5.573155
v -1.103581 -4.857802 5.009284
v -1.405602 -4.758810 4.911032
v -0.277859 -4.868289 5.966303
v -0.117020 -4.959045 6.113581
v -0.052848 -4.961329 6.201051
v -0.047111 -4.931693 6.121408
v -0.273295 -4.840696 5.827424
v -0.119978 -4.911196 6.004269
v 1.433089 -4.636990 4.563898
v 1.114189 -4.736449 4.824170
v 0.854561 -4.777468 5.011721
v 0.618133 -4.793159 5.260322
v 0.047913 -4.891803 6.074385
v -0.001196 -4.893764 6.123454
v 0.243638 -4.830782 5.742922
v 0.122715 -4.867865 5.934162
v 0.398422 -4.807689 5.516006
v -1.114804 -4.736190 4.824275
v -1.433272 -4.636889 4.563938
v -0.855689 -4.777100 5.011870
v -0.619543 -4.792816 5.260461
v -0.050269 -4.891754 6.074405
v -0.124908 -4.867751 5.934208
v -0.245582 -4.830585 5.743001
v -0.400044 -4.807427 5.516111
v -1.579878 -4.590470 4.332440
v 1.579878 -4.590470 4.332440
v 0.277482 -3.483451 9.065019
v 1.406280 -4.602992 4.705267
v 0.504532 -4.506219 8.654043
v 0.572037 -4.731200 5.434195
v 1.679236 -4.383162 4.703015
v 0.001120 -3.480059 9.078513
v 0.001212 -3.344316 8.790452
v 0.000945 -3.634336 9.371040
v -0.004358 -4.508602 8.708287
v 0.352796 -3.366612 8.828457
v 0.379672 -3.599370 9.252985
v 0.627977 -3.455756 8.914991
v 1.382087 -4.622560 4.584122
v 1.700688 -4.453151 3.730930
v 1.733524 -4.212218 3.918920
v 1.439144 -4.564181 4.885383
v 1.818859 -4.187593 4.501358
v 1.761413 -4.284170 5.020065
v 1.481905 -4.504222 5.170666
v 1.431919 -4.693807 3.468957
v 1.609688 -4.719410 3.616124
v 0.000000 -4.723741 3.417174
v 0.533148 -4.712646 3.387698
v 1.034089 -4.717483 3.362795
v 0.575253 -4.413720 3.483163
v 1.043565 -4.415802 3.458199
v 1.447031 -4.416004 3.549600
v 1.055276 -4.075149 3.683765
v 1.473288 -4.124031 3.748915
v 1.077948 -3.688612 4.046846
v 1.511655 -3.780550 4.105722
v 1.773626 -3.927290 4.235118
v 1.548367 -3.425921 4.563746
v 1.842311 -3.594374 4.654434
v 1.956826 -3.807464 4.776870
v 1.873680 -4.070742 4.345351
v 1.925137 -4.034696 4.901162
v 1.980317 -3.534985 5.246201
v 1.983028 -3.781767 5.321282
v 1.858702 -4.075423 5.408908
v 1.967736 -3.594286 5.827623
v 1.889925 -3.887406 5.860015
v 1.616287 -4.271547 5.905342
v 1.575128 -4.401779 5.526922
v 1.318938 -4.541690 5.999502
v 1.244778 -4.593643 5.666847
v 1.177506 -4.636783 5.353393
v 1.144066 -4.646572 5.093017
v 0.867871 -4.701580 5.787364
v 0.837338 -4.701016 5.510943
v 0.000000 -4.439634 3.550142
v 0.000000 -4.115178 3.791116
v 0.581897 -4.059651 3.716393
v 0.000000 -3.737140 4.169600
v 0.592093 -3.688131 4.075141
v -0.000000 -3.431442 4.609080
v 0.589262 -3.370264 4.542971
v 1.090446 -3.367161 4.514984
v 0.589940 -3.160986 5.076067
v 1.102947 -3.106421 5.064815
v 1.572398 -3.202494 5.112167
v 1.111851 -2.946177 5.633642
v 1.573931 -3.029869 5.697205
v 1.819055 -3.186412 5.764462
v 1.847746 -3.353739 5.179910
v 1.942613 -3.360626 5.794688
v 1.783964 -3.138945 6.295736
v 1.889366 -3.298861 6.313430
v 1.921113 -3.483005 6.314203
v 1.864599 -3.306911 6.845780
v 1.896028 -3.471976 6.836880
v 1.840774 -3.680405 6.814792
v 1.858632 -3.737144 6.307817
v 1.624775 -4.031092 6.787773
v 1.635712 -4.152667 6.322146
v 1.365261 -4.365892 6.794040
v 1.365581 -4.476686 6.365379
v 0.994915 -4.538905 6.793919
v 0.990840 -4.628037 6.393889
v 0.929663 -4.658966 6.074544
v 0.526721 -4.747509 5.890994
v 0.550689 -4.742908 5.643418
v 0.510061 -4.730372 6.149257
v -0.001282 -4.796007 6.250340
v -0.000000 -3.264516 5.117284
v -0.000000 -3.167761 5.608315
v 0.584429 -3.041137 5.610707
v -0.000000 -3.107492 6.102870
v 0.585967 -2.975662 6.140312
v 1.105417 -2.891476 6.184719
v 0.567297 -2.959346 6.662103
v 1.071276 -2.899768 6.728432
v 1.510292 -2.989880 6.794376
v 1.541948 -2.978669 6.248682
v 1.761518 -3.153152 6.837388
v 1.432442 -3.088167 7.331238
v 1.648245 -3.257292 7.368127
v 1.742431 -3.393378 7.368936
v 1.519658 -3.392917 7.864081
v 1.607673 -3.533896 7.868783
v 1.635010 -3.677552 7.852035
v 1.784886 -3.542098 7.353402
v 1.621179 -3.830450 7.819582
v 1.744158 -3.716052 7.321931
v 1.512720 -4.031895 7.763930
v 1.593136 -3.987792 7.274789
v 1.304444 -4.285816 7.714753
v 1.339487 -4.293102 7.240337
v 0.970384 -4.431245 7.692566
v 0.991211 -4.475257 7.226885
v 0.494848 -4.632049 6.820454
v 0.506458 -4.687708 6.433880
v -0.002107 -4.682163 6.875259
v -0.001583 -4.733911 6.532853
v -0.000000 -3.078913 6.612357
v -0.000000 -3.061152 7.136400
v 0.547241 -2.967777 7.187617
v -0.000000 -3.054768 7.633713
v 0.519493 -3.034897 7.702682
v 0.950403 -3.077383 7.775428
v 1.022167 -2.968736 7.262925
v 1.330692 -3.223214 7.842109
v 0.871046 -3.215677 8.254002
v 1.212279 -3.413416 8.368177
v 1.364620 -3.572894 8.392923
v 0.917795 -3.622795 9.023456
v 1.075130 -3.778054 9.089373
v 1.134610 -3.898908 9.111801
v 1.442627 -3.705910 8.396238
v 1.161569 -4.005799 9.106996
v 1.485438 -3.837797 8.388409
v 1.154672 -4.116315 9.084364
v 1.473230 -3.973444 8.360166
v 1.102893 -4.226464 9.043644
v 1.400013 -4.122155 8.309052
v 0.996987 -4.344321 8.971324
v 1.240232 -4.310055 8.243867
v 0.863223 -4.450576 8.893587
v 0.948967 -4.437143 8.213621
v 0.502784 -4.491370 8.202991
v 0.500984 -4.516337 7.688320
v 0.495566 -4.558080 7.234280
v -0.004516 -4.552816 7.694537
v -0.003006 -4.627794 7.259986
v 0.000807 -3.138246 8.104317
v 0.477265 -3.140733 8.182995
v 0.000121 -3.976338 9.798398
v 0.000630 -3.812456 9.651459
v 0.503371 -3.732400 9.421456
v 0.598961 -3.874773 9.545633
v -0.000399 -4.094388 9.827018
v 0.632426 -4.001257 9.603489
v -0.000949 -4.201772 9.814528
v 0.633378 -4.105846 9.593355
v -0.001516 -4.296364 9.761480
v 0.626102 -4.210550 9.555930
v -0.002168 -4.392197 9.668686
v 0.603889 -4.317970 9.483320
v -0.003018 -4.492598 9.487534
v 0.555502 -4.429567 9.320309
v -0.003914 -4.558513 9.193735
v 0.506239 -4.522047 9.068415
v -0.004864 -4.516809 8.213164
v 1.105906 -3.521661 8.681534
v 0.770775 -3.338445 8.601993
v 0.432832 -3.257084 8.534859
v 0.001128 -3.237392 8.484161
v 0.926244 -4.451946 8.611680
v 1.157807 -4.328851 8.628518
v 1.290201 -4.184998 8.678959
v 1.354098 -4.053555 8.717960
v 1.366461 -3.921601 8.738324
v 1.330858 -3.793205 8.737823
v 1.252102 -3.671014 8.718019
v 0.629115 -4.729409 5.239815
v 0.866355 -4.711533 5.002707
v 1.805588 -4.278562 4.075868
v 1.768687 -4.487893 3.912705
v 1.751141 -4.345212 4.276658
v 1.715268 -4.489569 4.144540
v 1.619548 -4.448121 4.505816
v 1.577839 -4.546997 4.384151
v 1.119739 -4.683024 4.803913
v 1.132490 -4.663459 4.908442
v 0.842209 -4.692543 5.270734
v 0.866315 -4.689253 5.088025
v 0.383251 -4.774227 5.513855
v 0.236772 -4.804458 5.721143
v 0.376077 -4.759272 5.598653
v 0.356217 -4.755221 5.738267
v 0.131332 -4.835197 5.902820
v 0.267290 -4.765708 5.963990
v 0.246595 -4.781146 5.745210
v 0.259912 -4.765930 5.786007
v 0.217227 -4.772262 5.869394
v 0.164173 -4.798689 5.891449
v 0.104642 -4.813910 6.066451
v 0.208616 -4.768505 6.231994
v 0.189734 -4.721494 6.497700
v 0.180853 -4.668527 6.854817
v 0.183130 -4.600133 7.249140
v 0.189218 -4.543352 7.691684
v 0.194276 -4.502392 8.207529
v 0.200709 -4.525027 8.687124
v 0.059783 -4.854949 6.062634
v -0.001208 -4.853345 6.136372
v 0.204928 -4.545815 9.151322
v 0.231167 -4.479313 9.440246
v 0.252021 -4.363357 9.617190
v 0.265487 -4.269503 9.714453
v 0.267254 -4.171016 9.764386
v 0.257851 -4.060467 9.788758
v 0.231762 -3.934289 9.734056
v 0.196409 -3.779089 9.582187
v 0.161174 -3.626162 9.344100
v 0.138474 -3.475648 9.075604
v 0.148326 -3.344205 8.798181
v 0.171941 -3.244427 8.496862
v 0.183406 -3.144969 8.125217
v 0.196832 -3.051726 7.652852
v 0.192330 -3.040563 7.148246
v 0.180183 -3.042383 6.619882
v 0.171037 -3.086777 6.108255
v 0.162573 -3.147185 5.607677
v 0.156955 -3.239018 5.101139
v 0.168720 -3.401428 4.582395
v 0.198180 -3.722383 4.129211
v 0.221156 -4.091313 3.776790
v 0.219701 -4.435101 3.523094
v 0.205928 -4.717949 3.403779
v -0.275313 -3.480750 9.066114
v -1.406585 -4.602823 4.705336
v -0.513235 -4.501656 8.655894
v -0.573506 -4.730854 5.434335
v -1.679343 -4.383085 4.703047
v -0.350419 -3.363176 8.829849
v -0.377886 -3.595668 9.254485
v -0.626190 -3.449838 8.917390
v -1.382317 -4.622437 4.584171
v -1.700688 -4.453151 3.730930
v -1.733524 -4.212218 3.918920
v -1.439595 -4.563915 4.885490
v -1.818859 -4.187593 4.501358
v -1.761805 -4.283843 5.020197
v -1.482671 -4.503726 5.170867
v -1.431919 -4.693807 3.468957
v -1.609688 -4.719410 3.616124
v -0.533148 -4.712646 3.387698
v -1.034089 -4.717483 3.362795
v -0.575253 -4.413720 3.483163
v -1.043565 -4.415802 3.458199
v -1.447031 -4.416004 3.549600
v -1.055276 -4.075149 3.683765
v -1.473288 -4.124031 3.748915
v -1.077948 -3.688612 4.046846
v -1.511655 -3.780550 4.105722
v -1.773626 -3.927290 4.235118
v -1.548367 -3.425921 4.563746
v -1.842311 -3.594374 4.654434
v -1.956828 -3.807463 4.776870
v -1.873680 -4.070742 4.345351
v -1.925299 -4.034533 4.901229
v -1.980603 -3.534543 5.246380
v -1.983499 -3.781148 5.321533
v -1.859463 -4.074625 5.409231
v -1.968446 -3.593063 5.828118
v -1.890892 -3.886124 5.860535
v -1.617660 -4.270312 5.905843
v -1.576237 -4.400930 5.527267
v -1.320718 -4.540538 5.999969
v -1.246203 -4.592838 5.667173
v -1.178681 -4.636195 5.353631
v -1.144955 -4.646158 5.093184
v -0.869567 -4.700932 5.787627
v -0.838762 -4.700513 5.511147
v -0.581897 -4.059651 3.716393
v -0.592093 -3.688131 4.075141
v -0.589262 -3.370264 4.542971
v -1.090446 -3.367161 4.514984
v -0.589940 -3.160986 5.076067
v -1.102947 -3.106421 5.064815
v -1.572414 -3.202468 5.112178
v -1.111896 -2.946086 5.633678
v -1.574182 -3.029232 5.697463
v -1.819453 -3.185454 5.764851
v -1.847903 -3.353482 5.180014
v -1.943140 -3.359512 5.795139
v -1.784435 -3.137311 6.296398
v -1.890021 -3.297015 6.314178
v -1.921982 -3.481054 6.314994
v -1.865436 -3.303675 6.847092
v -1.897187 -3.468606 6.838245
v -1.842357 -3.677060 6.816148
v -1.859818 -3.735167 6.308619
v -1.627123 -4.028004 6.789024
v -1.637484 -4.150771 6.322915
v -1.368415 -4.363150 6.795152
v -1.367903 -4.474963 6.366077
v -0.998524 -4.536847 6.794753
v -0.993480 -4.626719 6.394424
v -0.931717 -4.658070 6.074907
v -0.528643 -4.747065 5.891173
v -0.552336 -4.742524 5.643574
v -0.512346 -4.729836 6.149474
v -0.584429 -3.041137 5.610707
v -0.585982 -2.975640 6.140322
v -1.105582 -2.890877 6.184962
v -0.567391 -2.959073 6.662213
v -1.071399 -2.898603 6.728904
v -1.510559 -2.987643 6.795283
v -1.542238 -2.977461 6.249172
v -1.762066 -3.150224 6.838575
v -1.432669 -3.084006 7.332925
v -1.648981 -3.252122 7.370223
v -1.743616 -3.387822 7.371188
v -1.520686 -3.384038 7.867682
v -1.609530 -3.524433 7.872621
v -1.637763 -3.667899 7.855948
v -1.786579 -3.536369 7.355724
v -1.624913 -3.820880 7.823462
v -1.746475 -3.710399 7.324224
v -1.517766 -4.022985 7.767543
v -1.596462 -3.982531 7.276921
v -1.311146 -4.278082 7.717888
v -1.343976 -4.288572 7.242174
v -0.978177 -4.425355 7.694954
v -0.996440 -4.471836 7.228272
v -0.498756 -4.630989 6.820884
v -0.509288 -4.687000 6.434167
v -0.547251 -2.967130 7.187880
v -0.519019 -3.032816 7.703525
v -0.949823 -3.072167 7.777542
v -1.022128 -2.966355 7.263890
v -1.330775 -3.215514 7.845230
v -0.869786 -3.208815 8.256784
v -1.212210 -3.403848 8.372056
v -1.365731 -3.562107 8.397297
v -0.917186 -3.614363 9.026874
v -1.075696 -3.768237 9.093353
v -1.136193 -3.888567 9.115994
v -1.444780 -3.694499 8.400865
v -1.164138 -3.995230 9.111281
v -1.488657 -3.826056 8.393169
v -1.158325 -4.105823 9.088618
v -1.477601 -3.961830 8.364874
v -1.107695 -4.216443 9.047708
v -1.405691 -4.111177 8.313503
v -1.003123 -4.335263 8.974997
v -1.247561 -4.300367 8.247794
v -0.870599 -4.442739 8.896765
v -0.957544 -4.429581 8.216687
v -0.512157 -4.487200 8.204682
v -0.509613 -4.513171 7.689604
v -0.501193 -4.556328 7.234990
v -0.475565 -3.136792 8.184592
v -0.502211 -3.727487 9.423448
v -0.598696 -3.868922 9.548006
v -0.633165 -3.995074 9.605996
v -0.635179 -4.099648 9.595868
v -0.629075 -4.204418 9.558416
v -0.608201 -4.312048 9.485721
v -0.561510 -4.424152 9.322503
v -0.513934 -4.517239 9.070364
v -1.105663 -3.512115 8.685404
v -0.769195 -3.331637 8.604753
v -0.430693 -3.253112 8.536469
v -0.934362 -4.443848 8.614963
v -1.164697 -4.318871 8.632564
v -1.295665 -4.173906 8.683455
v -1.358294 -4.041921 8.722677
v -1.369453 -3.909864 8.743083
v -1.332750 -3.781776 8.742456
v -1.253015 -3.660254 8.722382
v -0.630468 -4.729068 5.239953
v -0.867414 -4.711173 5.002853
v -1.805588 -4.278562 4.075868
v -1.768687 -4.487893 3.912705
v -1.751141 -4.345212 4.276658
v -1.715268 -4.489569 4.144540
v -1.619548 -4.448122 4.505816
v -1.577839 -4.546997 4.384151
v -1.120327 -4.682771 4.804016
v -1.133167 -4.663157 4.908565
v -0.843460 -4.692111 5.270908
v -0.867434 -4.688866 5.088182
v -0.384866 -4.773973 5.513958
v -0.238680 -4.804269 5.721219
v -0.377763 -4.759007 5.598761
v -0.358028 -4.754946 5.738379
v -0.133466 -4.835078 5.902868
v -0.269373 -4.765462 5.964090
v -0.248494 -4.780948 5.745290
v -0.261824 -4.765717 5.786094
v -0.219237 -4.772072 5.869471
v -0.166249 -4.798542 5.891509
v -0.106936 -4.813804 6.066494
v -0.211126 -4.768265 6.232091
v -0.192779 -4.721209 6.497815
v -0.184963 -4.668121 6.854980
v -0.188990 -4.599467 7.249410
v -0.198161 -4.542118 7.692183
v -0.203863 -4.500733 8.208201
v -0.209601 -4.523160 8.687881
v -0.062105 -4.854888 6.062658
v -0.212732 -4.543794 9.152142
v -0.237247 -4.477024 9.441174
v -0.256265 -4.360873 9.618197
v -0.268428 -4.266893 9.715510
v -0.269035 -4.168396 9.765449
v -0.258455 -4.057944 9.789782
v -0.231352 -3.932026 9.734973
v -0.195085 -3.777176 9.582962
v -0.159301 -3.624596 9.344735
v -0.136196 -3.474306 9.076148
v -0.145861 -3.342767 8.798763
v -0.169694 -3.242758 8.497540
v -0.181849 -3.143366 8.125867
v -0.196743 -3.051512 7.652939
v -0.192331 -3.040563 7.148246
v -0.180183 -3.042383 6.619882
v -0.171037 -3.086777 6.108255
v -0.162573 -3.147185 5.607677
v -0.156955 -3.239018 5.101139
v -0.168720 -3.401428 4.582395
v -0.198180 -3.722383 4.129211
v -0.221156 -4.091313 3.776790
v -0.219701 -4.435101 3.523094
v -0.205928 -4.717949 3.403779
vn -0.9718 0.2013 -0.1228
vn -0.6952 0.7108 -0.1067
vn -0.8146 0.5371 -0.2191
vn 0.9718 0.2013 -0.1228
vn 0.6952 0.7108 -0.1067
vn 0.8146 0.5371 -0.2191
vn 0.4045 0.8681 0.2878
vn -0.0524 0.9094 0.4127
vn 0.2742 0.8288 0.4877
vn 0.3700 0.8363 0.4047
vn -0.4227 0.8866 0.1878
vn 0.5308 0.6096 0.5887
vn -0.1853 0.9399 0.2868
vn 0.0582 0.9458 0.3195
vn 0.6439 0.6011 0.4733
vn 0.3760 0.8591 0.3471
vn 0.0654 0.9915 0.1125
vn 0.3014 0.8984 0.3195
vn 0.0439 0.9913 0.1237
vn -0.4041 0.8683 0.2876
vn 0.0523 0.9095 0.4124
vn -0.2749 0.8289 0.4872
vn -0.3695 0.8369 0.4039
vn 0.4228 0.8866 0.1877
vn -0.5302 0.6101 0.5888
vn 0.1864 0.9397 0.2868
vn -0.0574 0.9459 0.3194
vn -0.6437 0.6016 0.4730
vn -0.3752 0.8596 0.3470
vn -0.0649 0.9915 0.1124
vn -0.3004 0.8987 0.3196
vn -0.0434 0.9914 0.1236
vn 0.3894 0.9129 -0.1222
vn -0.3894 0.9129 -0.1222
vn 0.3096 -0.9200 0.2404
vn -0.0216 0.9041 0.4268
vn 0.0107 0.8788 0.4770
vn 0.1323 0.8727 0.4701
vn 0.9295 0.1264 -0.3466
vn 0.6374 -0.7674 0.0703
vn -0.0467 0.3062 -0.9508
vn 0.2226 0.2747 -0.9354
vn 0.1886 0.5397 -0.8205
vn 0.5778 0.4369 -0.6893
vn 0.6126 0.1587 -0.7743
vn 0.2144 0.6767 -0.7044
vn 0.5873 0.5563 -0.5879
vn 0.5660 0.6145 -0.5496
vn 0.8837 0.2943 -0.3639
vn 0.9528 -0.2958 -0.0690
vn 0.9959 -0.0795 -0.0442
vn 0.8930 -0.4427 0.0813
vn 0.8210 -0.5707 -0.0153
vn 0.9467 -0.3049 0.1038
vn 0.7943 -0.5871 0.1559
vn 0.7177 -0.6885 0.1040
vn 0.6139 -0.7829 0.1010
vn 0.4834 -0.8723 0.0738
vn 0.3745 -0.9249 0.0659
vn 0.2442 -0.9693 0.0295
vn 0.2404 -0.9512 0.1936
vn 0.5882 0.1110 0.8010
vn -0.1130 0.5913 -0.7985
vn -0.0962 0.4066 -0.9085
vn -0.1558 0.6884 -0.7084
vn -0.0344 0.6900 -0.7230
vn -0.0407 0.5514 -0.8333
vn -0.2011 0.7986 -0.5673
vn -0.0343 0.8254 -0.5635
vn -0.0674 0.9155 -0.3965
vn 0.1911 0.8958 -0.4013
vn 0.2033 0.7856 -0.5843
vn 0.2135 0.9381 -0.2726
vn 0.5385 0.8124 -0.2236
vn 0.5308 0.7726 -0.3484
vn 0.8206 0.5586 -0.1204
vn 0.8700 0.4275 -0.2458
vn 0.8242 0.5663 0.0104
vn 0.9873 0.1404 0.0739
vn 0.9975 0.0641 0.0281
vn 0.9832 0.1768 0.0460
vn 0.9667 -0.2495 0.0567
vn 0.9598 -0.2391 0.1470
vn 0.8610 -0.4951 0.1163
vn 0.8427 -0.5106 0.1705
vn 0.7744 -0.6099 0.1682
vn 0.7309 -0.6756 0.0970
vn 0.3968 -0.8927 0.2136
vn 0.3400 -0.9372 0.0777
vn 0.2997 -0.9507 0.0793
vn 0.1557 -0.9822 0.1048
vn 0.1731 -0.9805 0.0931
vn 0.1343 -0.9909 -0.0114
vn -0.1497 0.9717 -0.1829
vn -0.1986 0.9326 -0.3014
vn -0.1203 0.9856 -0.1185
vn -0.1608 0.9809 -0.1098
vn -0.1353 0.9604 -0.2434
vn -0.1376 0.9904 -0.0143
vn 0.1942 0.9805 0.0293
vn 0.1980 0.9763 -0.0869
vn 0.5419 0.8391 0.0466
vn 0.5516 0.8331 -0.0417
vn 0.5330 0.8087 0.2488
vn 0.7906 0.5468 0.2755
vn 0.8300 0.5557 0.0480
vn 0.7794 0.5195 0.3502
vn 0.9299 0.1870 0.3168
vn 0.9481 0.2043 0.2435
vn 0.9565 -0.2010 0.2115
vn 0.9507 -0.2619 0.1659
vn 0.8634 -0.4948 0.0985
vn 0.8498 -0.5147 0.1136
vn 0.7643 -0.6414 0.0671
vn 0.7714 -0.6239 0.1251
vn 0.4284 -0.9005 0.0746
vn 0.4356 -0.8872 0.1523
vn 0.1710 -0.9808 0.0943
vn 0.1771 -0.9714 0.1585
vn 0.1628 -0.9701 0.1801
vn 0.0906 -0.9847 0.1486
vn 0.1231 -0.9725 0.1979
vn -0.1507 0.9884 -0.0167
vn -0.1580 0.9850 -0.0690
vn -0.0610 0.9981 0.0050
vn 0.0194 0.9852 0.1704
vn -0.0695 0.9953 0.0681
vn 0.2656 0.9267 0.2657
vn 0.2097 0.9620 0.1750
vn 0.3293 0.8764 0.3514
vn 0.6078 0.6868 0.3986
vn 0.5765 0.7464 0.3325
vn 0.5368 0.6955 0.4777
vn 0.7138 0.4925 0.4980
vn 0.7796 0.4840 0.3975
vn 0.8359 0.2130 0.5059
vn 0.9196 0.2042 0.3357
vn 0.8786 -0.1502 0.4533
vn 0.9642 -0.1350 0.2283
vn 0.7948 -0.4960 0.3497
vn 0.8693 -0.4830 0.1049
vn 0.6492 -0.7140 0.2620
vn 0.7599 -0.6476 0.0561
vn 0.4953 -0.8542 0.1582
vn 0.3991 -0.9169 0.0062
vn 0.1501 -0.9885 0.0210
vn 0.1015 -0.9839 0.1473
vn 0.1228 -0.9804 0.1543
vn -0.0001 0.9467 0.3221
vn -0.0099 0.9829 0.1841
vn 0.1529 0.9059 0.3949
vn 0.0923 0.9621 0.2566
vn 0.0463 0.8434 0.5353
vn 0.1041 0.6859 0.7202
vn 0.3956 0.7090 0.5837
vn 0.1435 0.3330 0.9319
vn 0.5770 0.4401 0.6880
vn 0.1823 -0.1568 0.9707
vn 0.6839 0.0388 0.7285
vn 0.2063 -0.4624 0.8623
vn 0.6759 -0.2390 0.6972
vn 0.2041 -0.7004 0.6839
vn 0.6180 -0.5182 0.5913
vn 0.1745 -0.8474 0.5014
vn 0.4943 -0.7618 0.4187
vn 0.1007 -0.9712 0.2160
vn 0.3777 -0.8706 0.3152
vn 0.0621 -0.9953 0.0738
vn 0.2537 0.8213 0.5110
vn 0.3321 0.8316 0.4452
vn 0.8690 0.0354 -0.4935
vn 0.3576 0.8412 0.4056
vn 0.1333 0.9291 0.3450
vn 0.0133 0.9667 0.2557
vn 0.4302 -0.9025 0.0190
vn 0.7261 -0.6784 0.1116
vn 0.8604 -0.4780 0.1768
vn 0.9479 -0.1391 0.2867
vn 0.8950 0.2594 0.3628
vn 0.7651 0.5060 0.3981
vn 0.6072 0.6712 0.4251
vn -0.0059 -0.9999 -0.0148
vn 0.1228 -0.9919 -0.0316
vn 0.1576 -0.9875 -0.0066
vn 0.9243 -0.3380 0.1771
vn 0.9768 -0.1276 0.1723
vn 0.7969 -0.5390 0.2730
vn 0.8442 -0.2639 0.4666
vn 0.8915 0.2518 -0.3766
vn 0.9056 -0.4197 0.0615
vn 0.6221 -0.7569 0.2004
vn 0.7881 -0.0410 0.6141
vn 0.7924 -0.6048 0.0798
vn 0.5340 0.3581 0.7659
vn 0.3036 -0.9459 0.1143
vn 0.6264 -0.7772 0.0601
vn 0.3135 -0.9437 0.1059
vn 0.1236 -0.9916 -0.0373
vn 0.1657 -0.9862 -0.0069
vn 0.1672 -0.9857 0.0227
vn 0.1510 -0.9877 0.0417
vn 0.7144 0.0337 0.6990
vn 0.2632 -0.9589 0.1058
vn 0.0960 -0.9953 -0.0105
vn 0.0607 -0.9980 -0.0173
vn 0.5067 -0.8171 0.2749
vn 0.2354 -0.9655 0.1116
vn 0.1183 -0.9930 -0.0037
vn 0.7330 -0.5934 0.3326
vn 0.4869 -0.8555 0.1763
vn 0.3169 -0.9483 -0.0194
vn 0.1525 -0.9744 0.1650
vn 0.1321 -0.9803 0.1468
vn 0.1358 -0.9758 0.1714
vn 0.1124 -0.9879 0.1071
vn 0.0619 -0.9961 0.0633
vn 0.0461 -0.9981 -0.0406
vn 0.2342 -0.9650 0.1176
vn 0.1117 -0.9928 0.0430
vn 0.7015 -0.6831 0.2033
vn 0.5427 -0.7346 0.4072
vn 0.7391 -0.1234 0.6622
vn 0.7255 0.4485 0.5220
vn 0.8983 0.0076 0.4393
vn 0.6957 0.4729 0.5408
vn 0.7277 0.1853 0.6604
vn 0.1931 -0.9483 0.2518
vn 0.2986 -0.8201 0.4881
vn 0.3708 -0.6365 0.6763
vn 0.4353 -0.3719 0.8199
vn 0.4467 -0.1207 0.8865
vn 0.3438 0.4486 0.8250
vn 0.2298 0.7143 0.6610
vn 0.1387 0.8347 0.5329
vn 0.0912 0.8707 0.4833
vn 0.0535 0.8957 0.4415
vn 0.0218 0.9419 0.3352
vn -0.0344 0.9584 0.2832
vn -0.0683 0.9774 0.2002
vn -0.1402 0.9875 0.0726
vn -0.2060 0.9785 0.0046
vn -0.2297 0.9715 -0.0592
vn -0.2450 0.9626 -0.1153
vn -0.2113 0.9578 -0.1947
vn -0.1443 0.9325 -0.3310
vn -0.1305 0.8125 -0.5681
vn -0.1676 0.6814 -0.7125
vn -0.1553 0.5665 -0.8093
vn -0.0902 0.3525 -0.9314
vn -0.0204 -0.9970 -0.0741
vn 0.0621 -0.9972 -0.0420
vn -0.3100 -0.9198 0.2404
vn 0.0321 0.9038 0.4267
vn -0.0002 0.8789 0.4770
vn -0.1224 0.8739 0.4705
vn -0.9295 0.1264 -0.3466
vn -0.6375 -0.7672 0.0702
vn 0.0467 0.3062 -0.9508
vn -0.2226 0.2747 -0.9354
vn -0.1886 0.5397 -0.8205
vn -0.5778 0.4369 -0.6893
vn -0.6126 0.1587 -0.7743
vn -0.2144 0.6767 -0.7044
vn -0.5873 0.5563 -0.5879
vn -0.5660 0.6145 -0.5496
vn -0.8837 0.2943 -0.3639
vn -0.9528 -0.2956 -0.0692
vn -0.9959 -0.0791 -0.0449
vn -0.8932 -0.4424 0.0808
vn -0.8211 -0.5706 -0.0156
vn -0.9470 -0.3043 0.1034
vn -0.7947 -0.5866 0.1558
vn -0.7180 -0.6882 0.1039
vn -0.6145 -0.7825 0.1011
vn -0.4838 -0.8721 0.0739
vn -0.3748 -0.9247 0.0661
vn -0.2447 -0.9691 0.0297
vn -0.2406 -0.9511 0.1937
vn -0.5890 0.1112 0.8004
vn 0.1130 0.5913 -0.7985
vn 0.0962 0.4066 -0.9085
vn 0.1558 0.6884 -0.7084
vn 0.0344 0.6900 -0.7230
vn 0.0407 0.5514 -0.8333
vn 0.2012 0.7986 -0.5673
vn 0.0343 0.8254 -0.5635
vn 0.0674 0.9155 -0.3965
vn -0.1911 0.8958 -0.4013
vn -0.2033 0.7856 -0.5843
vn -0.2130 0.9381 -0.2731
vn -0.5378 0.8126 -0.2247
vn -0.5305 0.7726 -0.3487
vn -0.8202 0.5591 -0.1215
vn -0.8698 0.4275 -0.2464
vn -0.8236 0.5671 0.0094
vn -0.9873 0.1413 0.0732
vn -0.9975 0.0647 0.0274
vn -0.9829 0.1784 0.0450
vn -0.9671 -0.2481 0.0566
vn -0.9601 -0.2382 0.1466
vn -0.8617 -0.4938 0.1164
vn -0.8433 -0.5098 0.1704
vn -0.7754 -0.6087 0.1680
vn -0.7316 -0.6749 0.0969
vn -0.3981 -0.8920 0.2142
vn -0.3410 -0.9368 0.0782
vn -0.3004 -0.9505 0.0797
vn -0.1568 -0.9820 0.1053
vn -0.1739 -0.9803 0.0934
vn -0.1350 -0.9908 -0.0112
vn 0.1497 0.9717 -0.1829
vn 0.1986 0.9326 -0.3014
vn 0.1203 0.9856 -0.1185
vn 0.1613 0.9807 -0.1102
vn 0.1354 0.9604 -0.2434
vn 0.1389 0.9902 -0.0151
vn -0.1926 0.9809 0.0277
vn -0.1969 0.9765 -0.0879
vn -0.5405 0.8402 0.0447
vn -0.5506 0.8337 -0.0429
vn -0.5311 0.8111 0.2452
vn -0.7897 0.5497 0.2726
vn -0.8291 0.5571 0.0464
vn -0.7782 0.5245 0.3454
vn -0.9298 0.1921 0.3140
vn -0.9480 0.2072 0.2418
vn -0.9574 -0.1964 0.2115
vn -0.9514 -0.2594 0.1660
vn -0.8653 -0.4911 0.1002
vn -0.8510 -0.5125 0.1144
vn -0.7670 -0.6379 0.0687
vn -0.7730 -0.6219 0.1254
vn -0.4322 -0.8984 0.0777
vn -0.4377 -0.8859 0.1536
vn -0.1753 -0.9797 0.0972
vn -0.1795 -0.9707 0.1599
vn -0.1643 -0.9697 0.1809
vn -0.0924 -0.9846 0.1485
vn -0.1243 -0.9723 0.1977
vn 0.1507 0.9884 -0.0167
vn 0.1580 0.9850 -0.0690
vn 0.0616 0.9981 0.0048
vn -0.0145 0.9861 0.1657
vn 0.0719 0.9952 0.0664
vn -0.2617 0.9296 0.2595
vn -0.2069 0.9631 0.1719
vn -0.3235 0.8799 0.3481
vn -0.6034 0.6920 0.3962
vn -0.5741 0.7508 0.3267
vn -0.5296 0.7003 0.4786
vn -0.7082 0.4989 0.4996
vn -0.7764 0.4902 0.3960
vn -0.8326 0.2204 0.5082
vn -0.9181 0.2110 0.3355
vn -0.8785 -0.1424 0.4560
vn -0.9648 -0.1282 0.2296
vn -0.7979 -0.4889 0.3526
vn -0.8722 -0.4772 0.1075
vn -0.6544 -0.7083 0.2646
vn -0.7640 -0.6425 0.0588
vn -0.5020 -0.8498 0.1604
vn -0.4050 -0.9143 0.0094
vn -0.1567 -0.9874 0.0234
vn -0.1061 -0.9834 0.1470
vn -0.1255 -0.9801 0.1540
vn 0.0106 0.9467 0.3220
vn 0.0148 0.9831 0.1824
vn -0.1439 0.9074 0.3948
vn -0.0854 0.9638 0.2525
vn -0.0359 0.8438 0.5355
vn -0.0946 0.6868 0.7206
vn -0.3873 0.7127 0.5848
vn -0.1366 0.3343 0.9325
vn -0.5707 0.4455 0.6898
vn -0.1799 -0.1550 0.9714
vn -0.6810 0.0452 0.7309
vn -0.2074 -0.4604 0.8631
vn -0.6756 -0.2327 0.6996
vn -0.2083 -0.6984 0.6847
vn -0.6206 -0.5123 0.5936
vn -0.1808 -0.8457 0.5021
vn -0.4996 -0.7572 0.4208
vn -0.1093 -0.9702 0.2164
vn -0.3843 -0.8671 0.3169
vn -0.0692 -0.9949 0.0740
vn -0.2445 0.8236 0.5118
vn -0.3239 0.8346 0.4455
vn -0.8690 0.0354 -0.4935
vn -0.3503 0.8446 0.4049
vn -0.1252 0.9306 0.3440
vn -0.0034 0.9668 0.2555
vn -0.4372 -0.8991 0.0216
vn -0.7312 -0.6725 0.1145
vn -0.8637 -0.4709 0.1797
vn -0.9482 -0.1312 0.2892
vn -0.8922 0.2670 0.3644
vn -0.7603 0.5126 0.3989
vn -0.6011 0.6766 0.4252
vn -0.0028 -0.9999 -0.0146
vn -0.1310 -0.9909 -0.0301
vn -0.1662 -0.9861 -0.0054
vn -0.9243 -0.3380 0.1771
vn -0.9768 -0.1276 0.1723
vn -0.7969 -0.5390 0.2730
vn -0.8442 -0.2639 0.4666
vn -0.8915 0.2518 -0.3766
vn -0.9056 -0.4197 0.0615
vn -0.6222 -0.7568 0.2002
vn -0.7885 -0.0408 0.6137
vn -0.7924 -0.6048 0.0797
vn -0.5347 0.3582 0.7654
vn -0.3036 -0.9459 0.1145
vn -0.6265 -0.7771 0.0600
vn -0.3136 -0.9436 0.1061
vn -0.1242 -0.9916 -0.0371
vn -0.1661 -0.9861 -0.0066
vn -0.1677 -0.9856 0.0228
vn -0.1512 -0.9876 0.0420
vn -0.7147 0.0342 0.6986
vn -0.2638 -0.9588 0.1058
vn -0.0966 -0.9953 -0.0104
vn -0.0615 -0.9980 -0.0172
vn -0.5075 -0.8167 0.2746
vn -0.2362 -0.9653 0.1116
vn -0.1191 -0.9929 -0.0036
vn -0.7338 -0.5927 0.3320
vn -0.4878 -0.8550 0.1760
vn -0.3179 -0.9479 -0.0196
vn -0.1536 -0.9742 0.1651
vn -0.1337 -0.9801 0.1470
vn -0.1384 -0.9754 0.1718
vn -0.1171 -0.9872 0.1083
vn -0.0689 -0.9955 0.0645
vn -0.0548 -0.9977 -0.0399
vn -0.2352 -0.9648 0.1173
vn -0.1126 -0.9927 0.0432
vn -0.7022 -0.6825 0.2026
vn -0.5434 -0.7345 0.4065
vn -0.7394 -0.1234 0.6619
vn -0.7255 0.4492 0.5214
vn -0.8987 0.0082 0.4386
vn -0.6958 0.4733 0.5401
vn -0.7279 0.1857 0.6600
vn -0.2012 -0.9464 0.2528
vn -0.3046 -0.8171 0.4894
vn -0.3743 -0.6329 0.6778
vn -0.4357 -0.3676 0.8216
vn -0.4443 -0.1163 0.8883
vn -0.3361 0.4519 0.8263
vn -0.2202 0.7165 0.6619
vn -0.1284 0.8360 0.5334
vn -0.0808 0.8715 0.4836
vn -0.0430 0.8961 0.4417
vn -0.0119 0.9422 0.3349
vn 0.0432 0.9584 0.2823
vn 0.0749 0.9777 0.1961
vn 0.1437 0.9871 0.0708
vn 0.2071 0.9783 0.0042
vn 0.2300 0.9714 -0.0594
vn 0.2450 0.9626 -0.1153
vn 0.2113 0.9578 -0.1947
vn 0.1443 0.9325 -0.3310
vn 0.1305 0.8125 -0.5681
vn 0.1676 0.6814 -0.7125
vn 0.1553 0.5665 -0.8093
vn 0.0902 0.3525 -0.9314
vn 0.0107 -0.9972 -0.0740
vn -0.0714 -0.9966 -0.0414
vt 2.171380 0.483290
vt 2.182060 0.469290
vt 2.191200 0.481920
vt 2.177650 0.495960
vt 2.171600 0.457330
vt 2.163690 0.474220
vt 2.148260 0.462080
vt 2.156640 0.444050
vt 2.581750 0.472370
vt 2.576160 0.485360
vt 2.561880 0.472050
vt 2.570340 0.458960
vt 2.580150 0.446460
vt 2.594380 0.432400
vt 2.603710 0.449960
vt 2.588950 0.462900
vt 2.100740 0.174580
vt 2.082230 0.170260
vt 2.082260 0.148560
vt 2.102480 0.152470
vt 2.063380 0.144840
vt 2.045460 0.141150
vt 2.044320 0.120400
vt 2.062620 0.121690
vt 2.083780 0.130510
vt 2.025810 0.140750
vt 2.026080 0.119290
vt 2.124830 0.213620
vt 2.123590 0.210940
vt 2.124580 0.206940
vt 2.125350 0.210130
vt 2.111910 0.199170
vt 2.113860 0.189630
vt 2.119710 0.202730
vt 2.118520 0.208920
vt 2.116670 0.184690
vt 2.121460 0.197710
vt 2.123290 0.215540
vt 2.107620 0.170220
vt 2.124200 0.217920
vt 2.159150 0.183180
vt 2.163850 0.161500
vt 2.184340 0.163580
vt 2.178120 0.184370
vt 2.203490 0.165460
vt 2.210880 0.143510
vt 2.228780 0.147540
vt 2.221720 0.167090
vt 2.188080 0.145860
vt 2.246570 0.151730
vt 2.240650 0.172360
vt 2.127000 0.207300
vt 2.126790 0.211420
vt 2.141370 0.203500
vt 2.132230 0.210940
vt 2.132870 0.204660
vt 2.142250 0.193810
vt 2.132640 0.199350
vt 2.140980 0.188260
vt 2.125760 0.215900
vt 2.153810 0.177020
vt 2.238070 0.139620
vt 2.249920 0.131600
vt 2.028670 0.099050
vt 2.037710 0.110140
vt 2.793020 0.718780
vt 2.814990 0.712330
vt 2.795290 0.733660
vt 2.762730 0.370840
vt 2.758550 0.356760
vt 2.767030 0.354300
vt 2.770700 0.368990
vt 2.764920 0.384770
vt 2.774280 0.383380
vt 2.754620 0.372960
vt 2.751470 0.385290
vt 2.732240 0.371460
vt 2.747110 0.361530
vt 2.561710 0.119080
vt 2.556760 0.109170
vt 2.568610 0.094530
vt 2.573190 0.107780
vt 2.541410 0.163710
vt 2.548390 0.183860
vt 2.530100 0.198490
vt 2.523390 0.177430
vt 2.604850 0.043200
vt 2.641710 0.027980
vt 2.644610 0.046160
vt 2.610740 0.057940
vt 2.587070 0.076360
vt 2.577470 0.062770
vt 2.618990 0.076980
vt 2.592350 0.090610
vt 2.562370 0.079880
vt 2.628690 0.103450
vt 2.600260 0.115990
vt 2.579070 0.128090
vt 2.609820 0.143610
vt 2.590550 0.154650
vt 2.576990 0.165160
vt 2.566690 0.136880
vt 2.564560 0.174950
vt 2.554790 0.148350
vt 2.592240 0.191570
vt 2.579280 0.198510
vt 2.563990 0.207100
vt 2.592680 0.228640
vt 2.578230 0.234790
vt 2.553510 0.244560
vt 2.542200 0.220690
vt 2.534710 0.257690
vt 2.523420 0.236400
vt 2.514330 0.215930
vt 2.508240 0.197960
vt 2.501910 0.250540
vt 2.493770 0.231840
vt 2.499980 0.172010
vt 2.503910 0.183290
vt 2.483970 0.201950
vt 2.479560 0.187580
vt 2.477980 0.181460
vt 2.495230 0.162470
vt 2.687970 0.037060
vt 2.692640 0.055810
vt 2.676870 0.059850
vt 2.670090 0.039040
vt 2.665030 0.023350
vt 2.683610 0.019550
vt 2.699640 0.083880
vt 2.686120 0.085750
vt 2.660160 0.092900
vt 2.652310 0.066860
vt 2.696390 0.113600
vt 2.706620 0.111900
vt 2.669610 0.121490
vt 2.638510 0.130630
vt 2.678830 0.152430
vt 2.649770 0.162680
vt 2.621880 0.175050
vt 2.659970 0.195660
vt 2.634330 0.208950
vt 2.617040 0.218450
vt 2.604560 0.184510
vt 2.604910 0.223350
vt 2.626520 0.248080
vt 2.615740 0.252490
vt 2.605720 0.255880
vt 2.628460 0.282670
vt 2.619230 0.286140
vt 2.608290 0.290170
vt 2.592510 0.260580
vt 2.587290 0.298990
vt 2.568290 0.270920
vt 2.565920 0.310360
vt 2.547650 0.281450
vt 2.544330 0.321930
vt 2.526090 0.291980
vt 2.512800 0.269960
vt 2.778570 0.657420
vt 2.770520 0.639600
vt 2.803950 0.631740
vt 2.807130 0.649400
vt 2.785120 0.674010
vt 2.809920 0.663980
vt 2.789280 0.690450
vt 2.812420 0.680820
vt 2.714500 0.143490
vt 2.721730 0.172500
vt 2.712660 0.174970
vt 2.704900 0.145290
vt 2.720040 0.204990
vt 2.729130 0.202200
vt 2.688330 0.183440
vt 2.696820 0.214520
vt 2.669230 0.227360
vt 2.705590 0.244960
vt 2.678620 0.257970
vt 2.655000 0.269950
vt 2.644260 0.239780
vt 2.638680 0.278300
vt 2.664810 0.299870
vt 2.650610 0.307890
vt 2.641720 0.311940
vt 2.663380 0.334420
vt 2.655240 0.339260
vt 2.647590 0.343500
vt 2.633360 0.315310
vt 2.639410 0.347680
vt 2.624140 0.319120
vt 2.626830 0.354350
vt 2.607490 0.326760
vt 2.608960 0.366330
vt 2.585990 0.338570
vt 2.592090 0.381030
vt 2.566390 0.351670
vt 2.758750 0.587480
vt 2.751870 0.559860
vt 2.785220 0.552060
vt 2.792790 0.579490
vt 2.765300 0.614140
vt 2.799440 0.605810
vt 2.822590 0.623830
vt 2.817340 0.599870
vt 2.827270 0.595980
vt 2.832920 0.618670
vt 2.837340 0.636380
vt 2.825010 0.640600
vt 2.736770 0.232850
vt 2.744470 0.263750
vt 2.734120 0.267140
vt 2.726900 0.235910
vt 2.741000 0.296560
vt 2.751660 0.292620
vt 2.714290 0.275260
vt 2.722850 0.304430
vt 2.698310 0.315960
vt 2.688060 0.287790
vt 2.676160 0.327410
vt 2.709070 0.340690
vt 2.690030 0.356240
vt 2.679850 0.363650
vt 2.692070 0.379160
vt 2.700820 0.371170
vt 2.717200 0.385220
vt 2.708670 0.395080
vt 2.686380 0.384980
vt 2.704330 0.401170
vt 2.672960 0.368840
vt 2.681500 0.390340
vt 2.700340 0.406140
vt 2.666910 0.373590
vt 2.676700 0.395910
vt 2.696840 0.411530
vt 2.660720 0.378500
vt 2.671270 0.402710
vt 2.694170 0.418000
vt 2.652660 0.385010
vt 2.664310 0.413320
vt 2.691280 0.427280
vt 2.640060 0.395720
vt 2.659730 0.428880
vt 2.689130 0.439580
vt 2.628310 0.412050
vt 2.743960 0.526950
vt 2.776110 0.519310
vt 2.810950 0.574560
vt 2.803580 0.547460
vt 2.814490 0.544710
vt 2.821180 0.571550
vt 2.753150 0.341150
vt 2.762950 0.337890
vt 2.757960 0.317870
vt 2.747740 0.321830
vt 2.719730 0.357670
vt 2.738310 0.347560
vt 2.731220 0.329650
vt 2.777990 0.398260
vt 2.766190 0.397770
vt 2.780580 0.408660
vt 2.766630 0.408860
vt 2.744100 0.408370
vt 2.747250 0.397170
vt 2.766430 0.416450
vt 2.782120 0.414840
vt 2.743570 0.416690
vt 2.766410 0.422780
vt 2.783530 0.420500
vt 2.743290 0.423040
vt 2.766930 0.428780
vt 2.784820 0.425640
vt 2.742790 0.429710
vt 2.768030 0.435440
vt 2.786250 0.431390
vt 2.742440 0.437070
vt 2.770200 0.444980
vt 2.788410 0.440060
vt 2.741210 0.448900
vt 2.777910 0.458450
vt 2.791510 0.452510
vt 2.725740 0.460510
vt 2.806100 0.511050
vt 2.794550 0.514210
vt 2.544240 0.101130
vt 2.786350 0.486610
vt 2.798830 0.481880
vt 2.768020 0.493200
vt 2.738240 0.505020
vt 2.757340 0.466110
vt 2.736390 0.487380
vt 2.549390 0.133250
vt 2.544990 0.125260
vt 2.539110 0.120450
vt 2.536050 0.155760
vt 2.529050 0.144380
vt 2.524860 0.138360
vt 2.519970 0.167930
vt 2.517290 0.158770
vt 2.513560 0.151490
vt 2.814280 0.696350
vt 2.790740 0.705300
vt 2.488680 0.215530
vt 2.820510 0.714850
vt 2.798420 0.739230
vt 2.822130 0.692130
vt 2.820010 0.687500
vt 2.818390 0.678710
vt 2.821150 0.656700
vt 2.830610 0.675670
vt 2.828120 0.675450
vt 2.824330 0.674920
vt 2.826380 0.665260
vt 2.834510 0.661650
vt 2.831390 0.663320
vt 2.832860 0.649020
vt 2.836860 0.649320
vt 2.839030 0.643170
vt 2.839730 0.646000
vt 2.839440 0.648420
vt 2.837930 0.659350
vt 2.833600 0.675650
vt 2.825600 0.693700
vt 2.915140 0.688350
vt 2.920120 0.702550
vt 2.892720 0.692960
vt 2.778600 0.366890
vt 2.775680 0.352490
vt 2.783210 0.380220
vt 2.786750 0.364960
vt 2.788020 0.351330
vt 2.805810 0.353130
vt 2.795320 0.374360
vt 2.837960 0.050230
vt 2.822520 0.045650
vt 2.820350 0.031790
vt 2.837680 0.039160
vt 2.876830 0.080110
vt 2.899180 0.083770
vt 2.903140 0.105520
vt 2.880120 0.101190
vt 2.764250 0.003470
vt 2.765970 0.019260
vt 2.730530 0.024750
vt 2.724560 0.007330
vt 2.797610 0.007900
vt 2.795520 0.024410
vt 2.797550 0.039470
vt 2.767620 0.039940
vt 2.818980 0.015930
vt 2.802470 0.065600
vt 2.771470 0.067870
vt 2.826860 0.066340
vt 2.829180 0.095180
vt 2.806990 0.094470
vt 2.841920 0.068290
vt 2.846090 0.098100
vt 2.857810 0.072830
vt 2.861660 0.100900
vt 2.859720 0.128620
vt 2.845020 0.128570
vt 2.877250 0.129030
vt 2.877670 0.160170
vt 2.862020 0.161520
vt 2.902870 0.130810
vt 2.904090 0.157190
vt 2.926830 0.135870
vt 2.926850 0.159960
vt 2.925250 0.113520
vt 2.922190 0.094790
vt 2.950870 0.117920
vt 2.952460 0.138250
vt 2.917310 0.068000
vt 2.942650 0.072160
vt 2.945500 0.086930
vt 2.919140 0.079810
vt 2.917020 0.057350
vt 2.941170 0.066020
vt 2.704690 0.030420
vt 2.708470 0.051970
vt 2.701800 0.014190
vt 2.712460 0.079190
vt 2.738730 0.073320
vt 2.733450 0.046640
vt 2.716460 0.108600
vt 2.775560 0.096480
vt 2.743810 0.103000
vt 2.780660 0.130070
vt 2.750190 0.134650
vt 2.811090 0.127900
vt 2.816000 0.163670
vt 2.787130 0.163970
vt 2.830820 0.128120
vt 2.835730 0.163950
vt 2.848740 0.162580
vt 2.852860 0.193400
vt 2.841260 0.194560
vt 2.863300 0.191690
vt 2.865570 0.224740
vt 2.855790 0.226020
vt 2.877170 0.189640
vt 2.877120 0.223180
vt 2.903410 0.187400
vt 2.899800 0.221100
vt 2.926580 0.187020
vt 2.924000 0.221120
vt 2.950550 0.186190
vt 2.948500 0.221200
vt 2.951950 0.160510
vt 2.899100 0.627380
vt 2.870120 0.633710
vt 2.864640 0.616610
vt 2.897850 0.607870
vt 2.901110 0.645110
vt 2.874500 0.647880
vt 2.905140 0.661580
vt 2.880190 0.663930
vt 2.723820 0.140580
vt 2.730900 0.170430
vt 2.738460 0.200400
vt 2.756350 0.166490
vt 2.793820 0.196310
vt 2.763440 0.197920
vt 2.799900 0.227750
vt 2.769980 0.228910
vt 2.821710 0.195550
vt 2.826380 0.227240
vt 2.844710 0.226950
vt 2.848070 0.258680
vt 2.831760 0.258270
vt 2.857820 0.258080
vt 2.858690 0.288560
vt 2.849240 0.288100
vt 2.866770 0.257140
vt 2.867440 0.288710
vt 2.876710 0.256180
vt 2.876630 0.288560
vt 2.895000 0.255100
vt 2.890860 0.288550
vt 2.919530 0.255440
vt 2.912270 0.290740
vt 2.942980 0.257810
vt 2.934060 0.295800
vt 2.883780 0.556320
vt 2.849980 0.565240
vt 2.843790 0.537470
vt 2.876900 0.528700
vt 2.890510 0.582940
vt 2.856450 0.591610
vt 2.844470 0.618380
vt 2.837860 0.594760
vt 2.850200 0.634320
vt 2.746920 0.230920
vt 2.755190 0.261890
vt 2.762930 0.291100
vt 2.776520 0.259760
vt 2.805560 0.258500
vt 2.809730 0.288200
vt 2.782650 0.289530
vt 2.834660 0.287910
vt 2.835940 0.319880
vt 2.811840 0.315080
vt 2.848410 0.321640
vt 2.844900 0.341080
vt 2.837710 0.362920
vt 2.825560 0.358220
vt 2.833420 0.338120
vt 2.852650 0.343550
vt 2.844400 0.366260
vt 2.856930 0.322990
vt 2.859480 0.345980
vt 2.850260 0.368770
vt 2.864500 0.324350
vt 2.866330 0.348650
vt 2.855880 0.371890
vt 2.872270 0.325770
vt 2.874320 0.352110
vt 2.861270 0.376360
vt 2.882440 0.327740
vt 2.885440 0.358210
vt 2.868180 0.383200
vt 2.898600 0.331280
vt 2.896800 0.369800
vt 2.875850 0.393040
vt 2.916640 0.340200
vt 2.836460 0.504260
vt 2.868430 0.495930
vt 2.831620 0.569410
vt 2.825420 0.542020
vt 2.773130 0.336170
vt 2.768840 0.316570
vt 2.810390 0.335080
vt 2.789240 0.334860
vt 2.787100 0.315730
vt 2.788180 0.392290
vt 2.793000 0.402290
vt 2.812670 0.391290
vt 2.804630 0.382870
vt 2.796740 0.408900
vt 2.817040 0.398380
vt 2.799730 0.414480
vt 2.820260 0.403850
vt 2.802080 0.420020
vt 2.823840 0.409510
vt 2.804230 0.426420
vt 2.827600 0.415850
vt 2.806800 0.435860
vt 2.834240 0.425720
vt 2.806300 0.451370
vt 2.853340 0.428710
vt 2.817780 0.508420
vt 2.844960 0.026190
vt 2.812070 0.480190
vt 2.831350 0.477420
vt 2.863200 0.473880
vt 2.828070 0.448480
vt 2.856550 0.457440
vt 2.855490 0.056970
vt 2.855620 0.047840
vt 2.858550 0.040830
vt 2.877830 0.070580
vt 2.878670 0.057250
vt 2.879550 0.049960
vt 2.897740 0.073780
vt 2.895810 0.064440
vt 2.895690 0.056260
vt 2.910830 0.675370
vt 2.885840 0.678520
vt 2.947710 0.101130
vt 2.889020 0.697780
vt 2.919960 0.708940
vt 2.876930 0.678470
vt 2.876630 0.673390
vt 2.873930 0.664870
vt 2.861160 0.646730
vt 2.861720 0.667920
vt 2.863810 0.666560
vt 2.866910 0.664310
vt 2.860560 0.656740
vt 2.851690 0.657370
vt 2.855230 0.657380
vt 2.847220 0.645440
vt 2.843830 0.647590
vt 2.841130 0.648000
vt 2.847590 0.656940
vt 2.859060 0.669310
vt 2.874600 0.681490
s 0
usemtl M_GumsTongue
f 14/1/1 3/2/1 5/3/1 4/4/1
f 2/5/2 13/6/2 12/7/2 1/8/2
f 3/2/3 14/1/3 13/6/3 2/5/3
f 18/9/4 9/10/4 10/11/4 8/12/4
f 7/13/5 6/14/5 16/15/5 17/16/5
f 8/12/6 7/13/6 17/16/6 18/9/6
f 21/17/7 20/18/7 19/19/7 46/20/7
f 22/21/8 23/22/8 43/23/8 44/24/8
f 45/25/9 19/19/9 22/21/9 44/24/9
f 19/19/10 45/25/10 46/20/10
f 43/23/11 23/22/11 11/26/11 12/27/11
f 27/28/12 28/29/12 47/30/12 48/31/12
f 24/32/13 29/33/13 30/34/13 25/35/13
f 29/33/14 49/36/14 50/37/14 30/34/14
f 30/34/15 50/37/15 47/30/15 28/29/15
f 25/35/16 30/34/16 28/29/16 26/38/16
f 46/20/17 51/39/17 21/17/17
f 26/38/18 28/29/18 27/28/18 31/40/18
f 51/39/19 49/36/19 29/33/19 21/17/19
f 34/41/20 55/42/20 32/43/20 33/44/20
f 35/45/21 52/46/21 53/47/21 36/48/21
f 54/49/22 52/46/22 35/45/22 32/43/22
f 32/43/23 55/42/23 54/49/23
f 53/47/24 16/50/24 15/51/24 36/48/24
f 27/28/25 48/31/25 56/52/25 40/53/25
f 37/54/26 38/55/26 42/56/26 41/57/26
f 41/57/27 42/56/27 57/58/27 58/59/27
f 42/56/28 40/53/28 56/52/28 57/58/28
f 38/55/29 39/60/29 40/53/29 42/56/29
f 55/42/30 34/41/30 59/61/30
f 39/60/31 31/40/31 27/28/31 40/53/31
f 59/61/32 34/41/32 41/57/32 58/59/32
f 60/62/33 17/63/33 16/50/33 53/47/33
f 13/64/34 61/65/34 43/23/34 12/27/34
f 247/66/35 236/67/35 237/68/35
f 277/69/36 278/70/36 68/71/36 67/72/36
f 276/73/37 277/69/37 67/72/37 69/74/37
f 62/75/38 72/76/38 73/77/38 71/78/38
f 238/79/39 239/80/39 75/81/39 76/82/39
f 66/83/40 79/84/40 80/85/40 77/86/40
f 85/87/41 84/88/41 86/89/41 87/90/41
f 85/87/42 87/90/42 88/91/42 81/92/42
f 88/91/43 87/90/43 89/93/43 90/94/43
f 88/91/44 90/94/44 76/82/44 75/81/44
f 88/91/45 75/81/45 82/95/45 81/92/45
f 89/93/46 91/96/46 92/97/46 90/94/46
f 92/97/47 93/98/47 76/82/47 90/94/47
f 93/98/48 92/97/48 94/99/48 95/100/48
f 93/98/49 95/100/49 96/101/49 97/102/49
f 97/102/50 96/101/50 98/103/50 78/104/50
f 98/103/51 96/101/51 99/105/51 100/106/51
f 98/103/52 100/106/52 101/107/52 79/84/52
f 98/103/53 79/84/53 66/83/53 78/104/53
f 101/107/54 100/106/54 102/108/54 103/109/54
f 101/107/55 103/109/55 104/110/55 105/111/55
f 101/107/56 105/111/56 80/85/56 79/84/56
f 105/111/57 104/110/57 106/112/57 107/113/57
f 105/111/58 107/113/58 108/114/58 80/85/58
f 108/114/59 109/115/59 77/86/59 80/85/59
f 108/114/60 107/113/60 110/116/60 111/117/60
f 244/118/61 245/119/61 247/120/61 237/121/61
f 244/118/62 237/121/62 45/122/62 44/123/62
f 112/124/63 113/125/63 289/126/63 290/127/63
f 112/124/64 290/127/64 291/128/64 83/129/64
f 115/130/65 288/131/65 289/126/65 113/125/65
f 116/132/66 91/96/66 89/93/66 114/133/66
f 114/133/67 89/93/67 87/90/67 86/89/67
f 287/134/68 288/131/68 115/130/68 117/135/68
f 116/132/69 118/136/69 119/137/69 91/96/69
f 119/137/70 118/136/70 120/138/70 121/139/70
f 119/137/71 121/139/71 122/140/71 94/99/71
f 119/137/72 94/99/72 92/97/72 91/96/72
f 122/140/73 121/139/73 123/141/73 124/142/73
f 122/140/74 124/142/74 125/143/74 126/144/74
f 122/140/75 126/144/75 95/100/75 94/99/75
f 126/144/76 125/143/76 127/145/76 99/105/76
f 126/144/77 99/105/77 96/101/77 95/100/77
f 127/145/78 125/143/78 128/146/78 129/147/78
f 127/145/79 129/147/79 130/148/79 102/108/79
f 127/145/80 102/108/80 100/106/80 99/105/80
f 130/148/81 129/147/81 131/149/81 132/150/81
f 130/148/82 132/150/82 133/151/82 134/152/82
f 130/148/83 134/152/83 103/109/83 102/108/83
f 134/152/84 133/151/84 135/153/84 136/154/84
f 134/152/85 136/154/85 104/110/85 103/109/85
f 136/154/86 135/153/86 137/155/86 138/156/86
f 136/154/87 138/156/87 106/112/87 104/110/87
f 138/156/88 137/155/88 139/157/88 140/158/88
f 138/156/89 140/158/89 141/159/89 106/112/89
f 141/159/90 110/116/90 107/113/90 106/112/90
f 141/160/91 140/161/91 173/162/91 144/163/91
f 110/164/92 141/160/92 144/163/92 142/165/92
f 111/166/93 110/164/93 142/165/93 143/167/93
f 146/168/94 147/169/94 285/170/94 286/171/94
f 146/168/95 286/171/95 287/134/95 117/135/95
f 284/172/96 285/170/96 147/169/96 149/173/96
f 148/174/97 150/175/97 151/176/97 123/141/97
f 148/174/98 123/141/98 121/139/98 120/138/98
f 151/176/99 150/175/99 152/177/99 153/178/99
f 151/176/100 153/178/100 154/179/100 155/180/100
f 151/176/101 155/180/101 124/142/101 123/141/101
f 155/180/102 154/179/102 156/181/102 128/146/102
f 155/180/103 128/146/103 125/143/103 124/142/103
f 156/181/104 154/179/104 157/182/104 158/183/104
f 156/181/105 158/183/105 159/184/105 131/149/105
f 156/181/106 131/149/106 129/147/106 128/146/106
f 159/184/107 158/183/107 160/185/107 161/186/107
f 159/184/108 161/186/108 162/187/108 163/188/108
f 159/184/109 163/188/109 132/150/109 131/149/109
f 163/188/110 162/187/110 164/189/110 165/190/110
f 163/188/111 165/190/111 133/151/111 132/150/111
f 165/190/112 164/189/112 166/191/112 167/192/112
f 165/190/113 167/192/113 135/153/113 133/151/113
f 167/192/114 166/191/114 168/193/114 169/194/114
f 167/192/115 169/194/115 137/155/115 135/153/115
f 169/194/116 168/193/116 170/195/116 171/196/116
f 169/194/117 171/196/117 139/157/117 137/155/117
f 171/197/118 170/198/118 202/199/118 203/200/118
f 139/201/119 171/197/119 203/200/119 172/202/119
f 140/161/120 139/201/120 172/202/120 173/162/120
f 260/203/121 261/204/121 174/205/121 175/206/121
f 145/207/122 259/208/122 260/203/122 175/206/122
f 176/209/123 177/210/123 282/211/123 283/212/123
f 176/209/124 283/212/124 284/172/124 149/173/124
f 281/213/125 282/211/125 177/210/125 179/214/125
f 178/215/126 180/216/126 181/217/126 182/218/126
f 178/215/127 182/218/127 153/178/127 152/177/127
f 182/218/128 181/217/128 183/219/128 157/182/128
f 182/218/129 157/182/129 154/179/129 153/178/129
f 183/219/130 181/217/130 184/220/130 185/221/130
f 183/219/131 185/221/131 186/222/131 160/185/131
f 183/219/132 160/185/132 158/183/132 157/182/132
f 235/223/133 225/224/133 187/225/133 188/226/133
f 234/227/134 235/223/134 188/226/134 189/228/134
f 186/222/135 190/229/135 161/186/135 160/185/135
f 233/230/136 234/227/136 189/228/136 191/231/136
f 190/229/137 192/232/137 162/187/137 161/186/137
f 232/233/138 233/230/138 191/231/138 193/234/138
f 192/232/139 194/235/139 164/189/139 162/187/139
f 231/236/140 232/233/140 193/234/140 195/237/140
f 194/235/141 196/238/141 166/191/141 164/189/141
f 230/239/142 231/236/142 195/237/142 197/240/142
f 196/238/143 198/241/143 168/193/143 166/191/143
f 229/242/144 230/239/144 197/240/144 199/243/144
f 198/241/145 200/244/145 170/195/145 168/193/145
f 170/198/146 200/245/146 201/246/146 202/199/146
f 262/247/147 263/248/147 204/249/147 205/250/147
f 174/205/148 261/204/148 262/247/148 205/250/148
f 278/70/149 279/251/149 228/252/149 68/71/149
f 206/253/150 280/254/150 281/213/150 179/214/150
f 226/255/151 227/256/151 71/78/151 73/77/151
f 207/257/152 184/220/152 181/217/152 180/216/152
f 209/258/153 275/259/153 276/73/153 69/74/153
f 209/258/154 208/260/154 274/261/154 275/259/154
f 211/262/155 188/226/155 187/225/155 210/263/155
f 273/264/156 274/261/156 208/260/156 212/265/156
f 211/262/157 213/266/157 189/228/157 188/226/157
f 272/267/158 273/264/158 212/265/158 214/268/158
f 213/266/159 215/269/159 191/231/159 189/228/159
f 271/270/160 272/267/160 214/268/160 216/271/160
f 215/269/161 217/272/161 193/234/161 191/231/161
f 270/273/162 271/270/162 216/271/162 218/274/162
f 217/272/163 219/275/163 195/237/163 193/234/163
f 269/276/164 270/273/164 218/274/164 220/277/164
f 219/275/165 221/278/165 197/240/165 195/237/165
f 268/279/166 269/276/166 220/277/166 222/280/166
f 221/278/167 223/281/167 199/243/167 197/240/167
f 224/282/168 204/249/168 263/248/168 264/283/168
f 210/263/169 187/225/169 73/77/169 72/76/169
f 187/225/170 225/224/170 226/255/170 73/77/170
f 239/80/171 14/284/171 82/95/171 75/81/171
f 226/255/172 225/224/172 185/221/172 184/220/172
f 207/257/173 227/256/173 226/255/173 184/220/173
f 206/253/174 228/252/174 279/251/174 280/254/174
f 198/241/175 230/239/175 229/242/175 200/244/175
f 196/238/176 231/236/176 230/239/176 198/241/176
f 194/235/177 232/233/177 231/236/177 196/238/177
f 192/232/178 233/230/178 232/233/178 194/235/178
f 190/229/179 234/227/179 233/230/179 192/232/179
f 186/222/180 235/223/180 234/227/180 190/229/180
f 186/222/181 185/221/181 225/224/181 235/223/181
f 224/282/182 264/283/182 265/285/182 70/286/182
f 64/287/183 201/246/183 200/245/183 229/288/183
f 223/289/184 64/287/184 229/288/184 199/290/184
f 240/291/185 241/292/185 239/80/185 238/79/185
f 241/292/186 13/293/186 14/284/186 239/80/186
f 242/294/187 243/295/187 241/292/187 240/291/187
f 243/295/188 61/296/188 13/293/188 241/292/188
f 93/98/189 97/102/189 238/79/189 76/82/189
f 97/102/190 78/104/190 240/291/190 238/79/190
f 63/297/191 74/298/191 243/295/191 242/294/191
f 43/299/192 61/296/192 243/295/192 74/298/192
f 78/104/193 66/83/193 242/294/193 240/291/193
f 244/118/194 44/123/194 43/299/194 74/298/194
f 245/119/195 244/118/195 74/298/195 63/297/195
f 66/83/196 77/86/196 63/297/196 242/294/196
f 77/86/197 109/115/197 245/119/197 63/297/197
f 143/167/198 65/300/198 246/301/198 111/166/198
f 111/117/199 246/302/199 109/115/199 108/114/199
f 65/300/200 236/67/200 247/66/200 246/301/200
f 246/302/201 247/120/201 245/119/201 109/115/201
f 46/303/202 45/304/202 237/68/202 236/67/202
f 248/305/203 236/67/203 65/300/203 250/306/203
f 65/300/204 143/167/204 251/307/204 250/306/204
f 253/308/205 251/307/205 143/167/205 142/165/205
f 249/309/206 248/305/206 250/306/206 254/310/206
f 251/307/207 255/311/207 254/310/207 250/306/207
f 256/312/208 255/311/208 251/307/208 253/308/208
f 252/313/209 249/309/209 254/310/209 257/314/209
f 257/314/210 254/310/210 255/311/210 256/312/210
f 257/314/211 256/312/211 253/308/211 258/315/211
f 260/203/212 259/208/212 144/163/212 173/162/212
f 173/162/213 172/202/213 261/204/213 260/203/213
f 262/247/214 261/204/214 172/202/214 203/200/214
f 203/200/215 202/199/215 263/248/215 262/247/215
f 264/283/216 263/248/216 202/199/216 201/246/216
f 265/285/217 264/283/217 201/246/217 64/287/217
f 258/315/218 253/308/218 259/208/218 145/207/218
f 253/308/219 142/165/219 144/163/219 259/208/219
f 257/314/220 258/315/220 266/316/220 252/313/220
f 266/316/221 258/315/221 145/207/221 267/317/221
f 48/318/222 47/319/222 266/316/222 267/317/222
f 50/320/223 49/321/223 249/309/223 252/313/223
f 50/320/224 252/313/224 266/316/224 47/319/224
f 249/309/225 49/321/225 51/322/225 248/305/225
f 248/305/226 51/322/226 46/303/226 236/67/226
f 221/278/227 269/276/227 268/279/227 223/289/227
f 219/275/228 270/273/228 269/276/228 221/278/228
f 217/272/229 271/270/229 270/273/229 219/275/229
f 215/269/230 272/267/230 271/270/230 217/272/230
f 213/266/231 273/264/231 272/267/231 215/269/231
f 211/262/232 274/261/232 273/264/232 213/266/232
f 275/259/233 274/261/233 211/262/233 210/263/233
f 276/73/234 275/259/234 210/263/234 72/76/234
f 62/75/235 277/69/235 276/73/235 72/76/235
f 62/75/236 71/78/236 278/70/236 277/69/236
f 227/256/237 279/251/237 278/70/237 71/78/237
f 280/254/238 279/251/238 227/256/238 207/257/238
f 281/213/239 280/254/239 207/257/239 180/216/239
f 178/215/240 282/211/240 281/213/240 180/216/240
f 283/212/241 282/211/241 178/215/241 152/177/241
f 284/172/242 283/212/242 152/177/242 150/175/242
f 148/174/243 285/170/243 284/172/243 150/175/243
f 286/171/244 285/170/244 148/174/244 120/138/244
f 287/134/245 286/171/245 120/138/245 118/136/245
f 116/132/246 288/131/246 287/134/246 118/136/246
f 289/126/247 288/131/247 116/132/247 114/133/247
f 290/127/248 289/126/248 114/133/248 86/89/248
f 291/128/249 290/127/249 86/89/249 84/88/249
f 70/286/250 265/285/250 268/279/250 222/280/250
f 265/285/251 64/287/251 223/289/251 268/279/251
f 446/323/252 436/324/252 435/325/252
f 475/326/253 67/72/253 68/71/253 476/327/253
f 474/328/254 69/74/254 67/72/254 475/326/254
f 292/329/255 297/330/255 299/331/255 298/332/255
f 437/333/256 302/334/256 301/335/256 438/336/256
f 296/337/257 303/338/257 306/339/257 305/340/257
f 310/341/258 312/342/258 311/343/258 309/344/258
f 310/341/259 307/345/259 313/346/259 312/342/259
f 313/346/260 315/347/260 314/348/260 312/342/260
f 313/346/261 301/335/261 302/334/261 315/347/261
f 313/346/262 307/345/262 308/349/262 301/335/262
f 314/348/263 315/347/263 317/350/263 316/351/263
f 317/350/264 315/347/264 302/334/264 318/352/264
f 318/352/265 320/353/265 319/354/265 317/350/265
f 318/352/266 322/355/266 321/356/266 320/353/266
f 322/355/267 304/357/267 323/358/267 321/356/267
f 323/358/268 325/359/268 324/360/268 321/356/268
f 323/358/269 305/340/269 326/361/269 325/359/269
f 323/358/270 304/357/270 296/337/270 305/340/270
f 326/361/271 328/362/271 327/363/271 325/359/271
f 326/361/272 330/364/272 329/365/272 328/362/272
f 326/361/273 305/340/273 306/339/273 330/364/273
f 330/364/274 332/366/274 331/367/274 329/365/274
f 330/364/275 306/339/275 333/368/275 332/366/275
f 333/368/276 306/339/276 303/338/276 334/369/276
f 333/368/277 336/370/277 335/371/277 332/366/277
f 443/372/278 436/373/278 446/374/278 444/375/278
f 443/372/279 52/376/279 54/377/279 436/373/279
f 112/124/280 488/378/280 487/379/280 113/125/280
f 112/124/281 83/129/281 489/380/281 488/378/281
f 115/130/282 113/125/282 487/379/282 486/381/282
f 338/382/283 337/383/283 314/348/283 316/351/283
f 337/383/284 311/343/284 312/342/284 314/348/284
f 485/384/285 117/135/285 115/130/285 486/381/285
f 338/382/286 316/351/286 340/385/286 339/386/286
f 340/385/287 342/387/287 341/388/287 339/386/287
f 340/385/288 319/354/288 343/389/288 342/387/288
f 340/385/289 316/351/289 317/350/289 319/354/289
f 343/389/290 345/390/290 344/391/290 342/387/290
f 343/389/291 347/392/291 346/393/291 345/390/291
f 343/389/292 319/354/292 320/353/292 347/392/292
f 347/392/293 324/360/293 348/394/293 346/393/293
f 347/392/294 320/353/294 321/356/294 324/360/294
f 348/394/295 350/395/295 349/396/295 346/393/295
f 348/394/296 327/363/296 351/397/296 350/395/296
f 348/394/297 324/360/297 325/359/297 327/363/297
f 351/397/298 353/398/298 352/399/298 350/395/298
f 351/397/299 355/400/299 354/401/299 353/398/299
f 351/397/300 327/363/300 328/362/300 355/400/300
f 355/400/301 357/402/301 356/403/301 354/401/301
f 355/400/302 328/362/302 329/365/302 357/402/302
f 357/402/303 359/404/303 358/405/303 356/403/303
f 357/402/304 329/365/304 331/367/304 359/404/304
f 359/404/305 361/406/305 360/407/305 358/405/305
f 359/404/306 331/367/306 362/408/306 361/406/306
f 362/408/307 331/367/307 332/366/307 335/371/307
f 362/409/308 365/410/308 390/411/308 361/412/308
f 335/413/309 363/414/309 365/410/309 362/409/309
f 336/415/310 364/416/310 363/414/310 335/413/310
f 146/168/311 484/417/311 483/418/311 147/169/311
f 146/168/312 117/135/312 485/384/312 484/417/312
f 482/419/313 149/173/313 147/169/313 483/418/313
f 366/420/314 344/391/314 368/421/314 367/422/314
f 366/420/315 341/388/315 342/387/315 344/391/315
f 368/421/316 370/423/316 369/424/316 367/422/316
f 368/421/317 372/425/317 371/426/317 370/423/317
f 368/421/318 344/391/318 345/390/318 372/425/318
f 372/425/319 349/396/319 373/427/319 371/426/319
f 372/425/320 345/390/320 346/393/320 349/396/320
f 373/427/321 375/428/321 374/429/321 371/426/321
f 373/427/322 352/399/322 376/430/322 375/428/322
f 373/427/323 349/396/323 350/395/323 352/399/323
f 376/430/324 378/431/324 377/432/324 375/428/324
f 376/430/325 380/433/325 379/434/325 378/431/325
f 376/430/326 352/399/326 353/398/326 380/433/326
f 380/433/327 382/435/327 381/436/327 379/434/327
f 380/433/328 353/398/328 354/401/328 382/435/328
f 382/435/329 384/437/329 383/438/329 381/436/329
f 382/435/330 354/401/330 356/403/330 384/437/330
f 384/437/331 386/439/331 385/440/331 383/438/331
f 384/437/332 356/403/332 358/405/332 386/439/332
f 386/439/333 388/441/333 387/442/333 385/440/333
f 386/439/334 358/405/334 360/407/334 388/441/334
f 388/443/335 415/444/335 414/445/335 387/446/335
f 360/447/336 389/448/336 415/444/336 388/443/336
f 361/412/337 390/411/337 389/448/337 360/447/337
f 459/449/338 175/206/338 174/205/338 460/450/338
f 145/207/339 175/206/339 459/449/339 458/451/339
f 176/209/340 481/452/340 480/453/340 177/210/340
f 176/209/341 149/173/341 482/419/341 481/452/341
f 479/454/342 179/214/342 177/210/342 480/453/342
f 391/455/343 394/456/343 393/457/343 392/458/343
f 391/455/344 369/424/344 370/423/344 394/456/344
f 394/456/345 374/429/345 395/459/345 393/457/345
f 394/456/346 370/423/346 371/426/346 374/429/346
f 395/459/347 397/460/347 396/461/347 393/457/347
f 395/459/348 377/432/348 398/462/348 397/460/348
f 395/459/349 374/429/349 375/428/349 377/432/349
f 434/463/350 400/464/350 399/465/350 425/466/350
f 433/467/351 401/468/351 400/464/351 434/463/351
f 398/462/352 377/432/352 378/431/352 402/469/352
f 432/470/353 403/471/353 401/468/353 433/467/353
f 402/469/354 378/431/354 379/434/354 404/472/354
f 431/473/355 405/474/355 403/471/355 432/470/355
f 404/472/356 379/434/356 381/436/356 406/475/356
f 430/476/357 407/477/357 405/474/357 431/473/357
f 406/475/358 381/436/358 383/438/358 408/478/358
f 429/479/359 409/480/359 407/477/359 430/476/359
f 408/478/360 383/438/360 385/440/360 410/481/360
f 428/482/361 411/483/361 409/480/361 429/479/361
f 410/481/362 385/440/362 387/442/362 412/484/362
f 387/446/363 414/445/363 413/485/363 412/486/363
f 461/487/364 205/250/364 204/249/364 462/488/364
f 174/205/365 205/250/365 461/487/365 460/450/365
f 476/327/366 68/71/366 228/252/366 477/489/366
f 206/253/367 179/214/367 479/454/367 478/490/367
f 426/491/368 299/331/368 297/330/368 427/492/368
f 416/493/369 392/458/369 393/457/369 396/461/369
f 209/258/370 69/74/370 474/328/370 473/494/370
f 209/258/371 473/494/371 472/495/371 208/260/371
f 418/496/372 417/497/372 399/465/372 400/464/372
f 471/498/373 212/265/373 208/260/373 472/495/373
f 418/496/374 400/464/374 401/468/374 419/499/374
f 470/500/375 214/268/375 212/265/375 471/498/375
f 419/499/376 401/468/376 403/471/376 420/501/376
f 469/502/377 216/271/377 214/268/377 470/500/377
f 420/501/378 403/471/378 405/474/378 421/503/378
f 468/504/379 218/274/379 216/271/379 469/502/379
f 421/503/380 405/474/380 407/477/380 422/505/380
f 467/506/381 220/277/381 218/274/381 468/504/381
f 422/505/382 407/477/382 409/480/382 423/507/382
f 466/508/383 222/280/383 220/277/383 467/506/383
f 423/507/384 409/480/384 411/483/384 424/509/384
f 224/282/385 463/510/385 462/488/385 204/249/385
f 417/497/386 298/332/386 299/331/386 399/465/386
f 399/465/387 299/331/387 426/491/387 425/466/387
f 438/336/388 301/335/388 308/349/388 18/511/388
f 426/491/389 396/461/389 397/460/389 425/466/389
f 416/493/390 396/461/390 426/491/390 427/492/390
f 206/253/391 478/490/391 477/489/391 228/252/391
f 410/481/392 412/484/392 428/482/392 429/479/392
f 408/478/393 410/481/393 429/479/393 430/476/393
f 406/475/394 408/478/394 430/476/394 431/473/394
f 404/472/395 406/475/395 431/473/395 432/470/395
f 402/469/396 404/472/396 432/470/396 433/467/396
f 398/462/397 402/469/397 433/467/397 434/463/397
f 398/462/398 434/463/398 425/466/398 397/460/398
f 224/282/399 70/286/399 464/512/399 463/510/399
f 294/513/400 428/514/400 412/486/400 413/485/400
f 424/515/401 411/516/401 428/514/401 294/513/401
f 439/517/402 437/333/402 438/336/402 440/518/402
f 440/518/403 438/336/403 18/511/403 17/519/403
f 441/520/404 439/517/404 440/518/404 442/521/404
f 442/521/405 440/518/405 17/519/405 60/522/405
f 318/352/406 302/334/406 437/333/406 322/355/406
f 322/355/407 437/333/407 439/517/407 304/357/407
f 293/523/408 441/520/408 442/521/408 300/524/408
f 53/525/409 300/524/409 442/521/409 60/522/409
f 304/357/410 439/517/410 441/520/410 296/337/410
f 443/372/411 300/524/411 53/525/411 52/376/411
f 444/375/412 293/523/412 300/524/412 443/372/412
f 296/337/413 441/520/413 293/523/413 303/338/413
f 303/338/414 293/523/414 444/375/414 334/369/414
f 364/416/415 336/415/415 445/526/415 295/527/415
f 336/370/416 333/368/416 334/369/416 445/528/416
f 295/527/417 445/526/417 446/323/417 435/325/417
f 445/528/418 334/369/418 444/375/418 446/374/418
f 55/529/419 435/325/419 436/324/419 54/530/419
f 447/531/420 449/532/420 295/527/420 435/325/420
f 295/527/421 449/532/421 450/533/421 364/416/421
f 452/534/422 363/414/422 364/416/422 450/533/422
f 448/535/423 453/536/423 449/532/423 447/531/423
f 450/533/424 449/532/424 453/536/424 454/537/424
f 455/538/425 452/534/425 450/533/425 454/537/425
f 451/539/426 456/540/426 453/536/426 448/535/426
f 456/540/427 455/538/427 454/537/427 453/536/427
f 456/540/428 457/541/428 452/534/428 455/538/428
f 459/449/429 390/411/429 365/410/429 458/451/429
f 390/411/430 459/449/430 460/450/430 389/448/430
f 461/487/431 415/444/431 389/448/431 460/450/431
f 415/444/432 461/487/432 462/488/432 414/445/432
f 463/510/433 413/485/433 414/445/433 462/488/433
f 464/512/434 294/513/434 413/485/434 463/510/434
f 457/541/435 145/207/435 458/451/435 452/534/435
f 452/534/436 458/451/436 365/410/436 363/414/436
f 456/540/437 451/539/437 465/542/437 457/541/437
f 465/542/438 267/317/438 145/207/438 457/541/438
f 48/318/439 267/317/439 465/542/439 56/543/439
f 57/544/440 451/539/440 448/535/440 58/545/440
f 57/544/441 56/543/441 465/542/441 451/539/441
f 448/535/442 447/531/442 59/546/442 58/545/442
f 447/531/443 435/325/443 55/529/443 59/546/443
f 423/507/444 424/515/444 466/508/444 467/506/444
f 422/505/445 423/507/445 467/506/445 468/504/445
f 421/503/446 422/505/446 468/504/446 469/502/446
f 420/501/447 421/503/447 469/502/447 470/500/447
f 419/499/448 420/501/448 470/500/448 471/498/448
f 418/496/449 419/499/449 471/498/449 472/495/449
f 473/494/450 417/497/450 418/496/450 472/495/450
f 474/328/451 298/332/451 417/497/451 473/494/451
f 292/329/452 298/332/452 474/328/452 475/326/452
f 292/329/453 475/326/453 476/327/453 297/330/453
f 427/492/454 297/330/454 476/327/454 477/489/454
f 478/490/455 416/493/455 427/492/455 477/489/455
f 479/454/456 392/458/456 416/493/456 478/490/456
f 391/455/457 392/458/457 479/454/457 480/453/457
f 481/452/458 369/424/458 391/455/458 480/453/458
f 482/419/459 367/422/459 369/424/459 481/452/459
f 366/420/460 367/422/460 482/419/460 483/418/460
f 484/417/461 341/388/461 366/420/461 483/418/461
f 485/384/462 339/386/462 341/388/462 484/417/462
f 338/382/463 339/386/463 485/384/463 486/381/463
f 487/379/464 337/383/464 338/382/464 486/381/464
f 488/378/465 311/343/465 337/383/465 487/379/465
f 489/380/466 309/344/466 311/343/466 488/378/466
f 70/286/467 222/280/467 466/508/467 464/512/467
f 464/512/468 466/508/468 424/515/468 294/513/468
